<svg width="170" height="38" viewBox="0 0 170 38" fill="none" xmlns="http://www.w3.org/2000/svg">
<path d="M35.4966 26.5282C37.0986 21.1178 32.2029 20.3841 25.9295 23.2424C25.9295 23.2424 25.9295 23.2424 25.9084 23.2424C25.5653 23.3822 25.2064 23.5511 24.8527 23.7438C24.09 24.1423 21.1578 25.6414 18.2679 26.2563C26.9456 23.9734 37.7664 7.07192 21.6513 0.265396C24.4879 0.734928 27.1773 1.85442 29.5092 3.53627C31.8411 5.21813 33.7522 7.41674 35.093 9.96008C36.4338 12.5034 37.1679 15.3225 37.2379 18.1968C37.308 21.0711 36.712 23.9225 35.4966 26.5282V26.5282Z" fill="#C5E7B4"/>
<path d="M35.4966 26.5282C34.0872 29.5334 31.9007 32.1077 29.1632 33.9849C26.4257 35.8622 23.2365 36.9743 19.9253 37.2064V33.8282C20.2737 33.8282 20.6273 33.8282 20.981 33.8493C27.7136 33.9866 31.2897 30.7562 30.9625 26.6839C30.6326 22.6934 28.6373 22.1471 25.948 23.2529C32.2029 20.3841 37.0986 21.1178 35.4966 26.5282Z" fill="#35744B"/>
<path d="M17.8483 33.7886C13.2349 33.6382 8.95411 32.9045 8.44738 27.0191C7.331 14.0869 5.82928 12.2078 3.7839 9.13314C3.55956 8.79268 3.37218 8.47597 3.21383 8.17774C1.35008 10.9232 0.253774 14.1167 0.038318 17.428C-0.177138 20.7393 0.496084 24.048 1.98834 27.0118C3.4806 29.9756 5.73768 32.4868 8.52606 34.2856C11.3144 36.0845 14.5328 37.1056 17.8483 37.2434V33.7886Z" fill="#35744B"/>
<path d="M21.6514 0.265392V6.16666L27.4576 11.4451H22.8284C22.9338 11.6737 22.9824 11.9243 22.9701 12.1757C22.9577 12.4272 22.8848 12.6719 22.7576 12.889C22.6304 13.1062 22.4525 13.2894 22.2392 13.4231C22.0259 13.5568 21.7835 13.6369 21.5326 13.6567C21.4878 13.6607 21.4428 13.6607 21.398 13.6567C20.978 13.6567 20.5752 13.4899 20.2783 13.1929C19.9813 12.896 19.8145 12.4932 19.8145 12.0732C19.8139 11.8467 19.8644 11.623 19.9623 11.4187H15.3489L19.9042 7.26721L21.1393 6.16666V0.196773C20.3041 0.0815411 19.4621 0.0224667 18.6189 0.0199469C14.3033 0.0137819 10.1207 1.51374 6.79261 4.26116C10.3028 5.13737 11.4746 8.52084 11.4561 17.217C11.4561 17.5944 11.4561 17.9534 11.4561 18.2991C11.4983 21.1125 11.7517 23.0048 12.1951 24.2584C13.0449 26.6548 15.626 26.8317 18.2494 26.2695C26.9456 23.9734 37.7664 7.07191 21.6514 0.265392Z" fill="#58C27D"/>
<g style="mix-blend-mode:multiply" opacity="0.5">
<path d="M21.6513 0.265396C36.9588 8.71086 24.4304 24.3957 15.5574 25.7681C14.8161 25.8539 14.0679 25.8636 13.3246 25.7971C14.5387 26.6865 16.3861 26.6654 18.2573 26.2642C26.9456 23.9734 37.7664 7.07192 21.6513 0.265396Z" fill="#58C27D"/>
</g>
<g style="mix-blend-mode:multiply" opacity="0.5">
<path d="M25.9295 23.2423C27.2491 22.7145 28.4077 22.5641 29.2787 23.0365C33.0607 21.4028 35.8318 22.2447 35.494 26.5282C37.0986 21.1178 32.2029 20.3841 25.9295 23.2423Z" fill="#35744B"/>
</g>
<path d="M45.1611 30.3381V30.0679L45.6475 29.9057C46.0079 29.7796 46.2511 29.6084 46.3772 29.3923C46.5033 29.1761 46.5664 28.8878 46.5664 28.5275C46.5844 27.4465 46.5934 26.3565 46.5934 25.2576C46.5934 24.1586 46.5934 23.0596 46.5934 21.9606V20.8796C46.5934 19.7987 46.5934 18.7177 46.5934 17.6367C46.5934 16.5378 46.5844 15.4478 46.5664 14.3668C46.5664 14.0065 46.5123 13.7182 46.4042 13.502C46.3141 13.2859 46.0979 13.1147 45.7556 12.9886L45.1611 12.7724V12.5021H58.2408L58.43 16.9882H58.1597L56.6193 14.1506C56.4392 13.8083 56.232 13.5381 55.9978 13.3399C55.7636 13.1417 55.4393 13.0426 55.0249 13.0426H50.674C50.656 14.3218 50.647 15.6279 50.647 16.9611C50.647 18.2943 50.647 19.6185 50.647 20.9337H53.4575C53.8719 20.9337 54.1782 20.8436 54.3763 20.6634C54.5745 20.4833 54.7637 20.2221 54.9439 19.8797L55.5114 18.8528H55.7816V23.5821H55.5114L54.9168 22.5551C54.7367 22.2308 54.5475 21.9696 54.3493 21.7714C54.1692 21.5733 53.8719 21.4742 53.4575 21.4742H50.647C50.647 22.7353 50.647 23.9424 50.647 25.0954C50.647 26.2304 50.656 27.3474 50.674 28.4464C50.674 29.149 51.0163 29.6084 51.701 29.8246L52.5117 30.0679V30.3381H45.1611Z" fill="#35744B"/>
<path d="M63.6952 30.7435C62.9926 30.7435 62.344 30.6083 61.7495 30.3381C61.173 30.0679 60.7136 29.6355 60.3713 29.0409C60.047 28.4284 59.8938 27.6267 59.9119 26.6358L59.9929 19.6906C59.9929 19.2762 59.9209 18.9789 59.7767 18.7988C59.6326 18.6186 59.4074 18.4925 59.1011 18.4204L58.7768 18.3123V18.0421L63.6142 17.0963L63.8844 17.3665L63.7493 21.2039V27.7168C63.7493 28.2933 63.9114 28.7166 64.2357 28.9869C64.578 29.2571 65.0014 29.3923 65.5059 29.3923C66.0103 29.3923 66.4607 29.3202 66.8571 29.1761C67.2534 29.0319 67.6498 28.8157 68.0461 28.5275L68.1542 19.7176C68.1542 19.3032 68.0912 19.015 67.9651 18.8528C67.839 18.6727 67.6047 18.5466 67.2624 18.4745L66.9922 18.3934V18.1232L71.7214 17.0963L71.9917 17.3665L71.9106 21.2039V28.5275C71.9106 28.9238 71.9646 29.2301 72.0727 29.4463C72.1808 29.6625 72.415 29.8427 72.7754 29.9868L73.0456 30.0679V30.3381L68.3164 30.6083L68.0732 29.0139C67.4786 29.5003 66.83 29.9147 66.1274 30.257C65.4428 30.5813 64.6321 30.7435 63.6952 30.7435Z" fill="#35744B"/>
<path d="M74.1369 30.3381V30.0679L74.5423 29.9598C74.9026 29.8517 75.1458 29.6895 75.2719 29.4733C75.4161 29.2571 75.4881 28.9779 75.4881 28.6356V20.177C75.4881 19.7807 75.4161 19.4924 75.2719 19.3122C75.1458 19.1141 74.9026 18.9789 74.5423 18.9069L74.1369 18.7988V18.5285L78.7851 16.9611L79.0553 17.2314L79.2985 19.5555V19.7716C79.5508 19.2672 79.8751 18.8078 80.2714 18.3934C80.6858 17.961 81.1362 17.6097 81.6226 17.3395C82.1271 17.0692 82.6225 16.9341 83.1089 16.9341C83.7936 16.9341 84.316 17.1233 84.6763 17.5016C85.0367 17.88 85.2168 18.3574 85.2168 18.9339C85.2168 19.5464 85.0367 20.0239 84.6763 20.3662C84.334 20.6905 83.9197 20.8526 83.4332 20.8526C82.6766 20.8526 82.01 20.4743 81.4334 19.7176L81.3794 19.6636C81.1992 19.4113 80.992 19.2762 80.7578 19.2582C80.5236 19.2222 80.3074 19.3303 80.1093 19.5825C79.9291 19.7446 79.776 19.9428 79.6498 20.177C79.5418 20.3932 79.4337 20.6454 79.3256 20.9337V28.4734C79.3256 29.1941 79.6408 29.6445 80.2714 29.8246L81.1362 30.0679V30.3381H74.1369Z" fill="#35744B"/>
<path d="M86.0656 30.3381V30.0679L86.4439 29.9598C87.0745 29.7796 87.3897 29.3382 87.3897 28.6356V20.177C87.3897 19.7807 87.3267 19.4924 87.2006 19.3122C87.0745 19.1141 86.8312 18.9789 86.4709 18.9069L86.0656 18.7988V18.5285L90.6867 16.9611L90.9569 17.2314L91.1731 18.8528C91.8037 18.2943 92.5153 17.8349 93.308 17.4746C94.1007 17.1143 94.8844 16.9341 95.6591 16.9341C96.8482 16.9341 97.758 17.2584 98.3886 17.907C99.0372 18.5556 99.3614 19.5464 99.3614 20.8796V28.6626C99.3614 29.3652 99.7037 29.8066 100.388 29.9868L100.632 30.0679V30.3381H94.2539V30.0679L94.6052 29.9598C95.2357 29.7616 95.551 29.3202 95.551 28.6356V20.0149C95.551 18.8618 94.9745 18.2853 93.8215 18.2853C93.0288 18.2853 92.164 18.6817 91.2272 19.4744V28.6626C91.2272 29.3652 91.5424 29.8066 92.173 29.9868L92.4162 30.0679V30.3381H86.0656Z" fill="#35744B"/>
<path d="M101.743 30.3381V30.0679L102.121 29.9598C102.482 29.8517 102.725 29.6895 102.851 29.4733C102.995 29.2571 103.067 28.9689 103.067 28.6086V20.15C103.067 19.7716 102.995 19.4924 102.851 19.3122C102.725 19.1141 102.482 18.9789 102.121 18.9069L101.743 18.8258V18.5556L106.688 16.9611L106.959 17.2314L106.878 21.0688V28.6356C106.878 28.9959 106.941 29.2842 107.067 29.5003C107.211 29.7165 107.454 29.8787 107.796 29.9868L108.067 30.0679V30.3381H101.743Z" fill="#35744B"/>
<path d="M114.398 30.7435C113.245 30.7435 112.344 30.4552 111.695 29.8787C111.065 29.3022 110.749 28.3834 110.749 27.1222V10.8437H108.885V10.5734L109.533 10.4653C110.092 10.3392 110.569 10.1591 110.966 9.92486C111.38 9.69065 111.785 9.37537 112.182 8.97901L114.398 6.51981H114.668L114.587 10.3032H117.614V10.8437H114.56V27.6087C114.56 28.2392 114.695 28.7166 114.965 29.0409C115.253 29.3652 115.614 29.5274 116.046 29.5274C116.424 29.5274 116.758 29.4373 117.046 29.2571C117.334 29.059 117.623 28.7977 117.911 28.4734L118.181 28.7437C117.821 29.3562 117.325 29.8427 116.695 30.203C116.064 30.5633 115.298 30.7435 114.398 30.7435Z" fill="#35744B"/>
<path d="M123.761 30.7435C123.058 30.7435 122.409 30.6083 121.815 30.3381C121.238 30.0679 120.779 29.6355 120.437 29.0409C120.112 28.4284 119.959 27.6267 119.977 26.6358L120.058 19.6906C120.058 19.2762 119.986 18.9789 119.842 18.7988C119.698 18.6186 119.473 18.4925 119.167 18.4204L118.842 18.3123V18.0421L123.68 17.0963L123.95 17.3665L123.815 21.2039V27.7168C123.815 28.2933 123.977 28.7166 124.301 28.9869C124.643 29.2571 125.067 29.3923 125.571 29.3923C126.076 29.3923 126.526 29.3202 126.922 29.1761C127.319 29.0319 127.715 28.8157 128.112 28.5275L128.22 19.7176C128.22 19.3032 128.157 19.015 128.03 18.8528C127.904 18.6727 127.67 18.5466 127.328 18.4745L127.058 18.3934V18.1232L131.787 17.0963L132.057 17.3665L131.976 21.2039V28.5275C131.976 28.9238 132.03 29.2301 132.138 29.4463C132.246 29.6625 132.48 29.8427 132.841 29.9868L133.111 30.0679V30.3381L128.382 30.6083L128.139 29.0139C127.544 29.5003 126.895 29.9147 126.193 30.257C125.508 30.5813 124.698 30.7435 123.761 30.7435Z" fill="#35744B"/>
<path d="M134.202 30.3381V30.0679L134.608 29.9598C134.968 29.8517 135.211 29.6895 135.337 29.4733C135.481 29.2571 135.554 28.9779 135.554 28.6356V20.177C135.554 19.7807 135.481 19.4924 135.337 19.3122C135.211 19.1141 134.968 18.9789 134.608 18.9069L134.202 18.7988V18.5285L138.851 16.9611L139.121 17.2314L139.364 19.5555V19.7716C139.616 19.2672 139.94 18.8078 140.337 18.3934C140.751 17.961 141.202 17.6097 141.688 17.3395C142.192 17.0692 142.688 16.9341 143.174 16.9341C143.859 16.9341 144.381 17.1233 144.742 17.5016C145.102 17.88 145.282 18.3574 145.282 18.9339C145.282 19.5464 145.102 20.0239 144.742 20.3662C144.399 20.6905 143.985 20.8526 143.499 20.8526C142.742 20.8526 142.075 20.4743 141.499 19.7176L141.445 19.6636C141.265 19.4113 141.057 19.2762 140.823 19.2582C140.589 19.2222 140.373 19.3303 140.175 19.5825C139.995 19.7446 139.841 19.9428 139.715 20.177C139.607 20.3932 139.499 20.6454 139.391 20.9337V28.4734C139.391 29.1941 139.706 29.6445 140.337 29.8246L141.202 30.0679V30.3381H134.202Z" fill="#35744B"/>
<path d="M152.492 16.9341C153.663 16.9341 154.663 17.1773 155.491 17.6638C156.32 18.1322 156.951 18.7808 157.383 19.6095C157.834 20.4202 158.059 21.3481 158.059 22.393C158.059 22.5912 158.05 22.7984 158.032 23.0145C158.014 23.2127 157.978 23.3929 157.924 23.555H149.87C149.888 25.5008 150.231 26.906 150.897 27.7708C151.582 28.6176 152.591 29.0409 153.924 29.0409C154.825 29.0409 155.555 28.8968 156.113 28.6086C156.672 28.3203 157.194 27.8969 157.68 27.3384L157.951 27.5816C157.392 28.5725 156.644 29.3472 155.708 29.9057C154.789 30.4642 153.681 30.7435 152.384 30.7435C151.105 30.7435 149.97 30.4732 148.979 29.9327C147.988 29.3742 147.213 28.5815 146.655 27.5546C146.096 26.5277 145.817 25.3026 145.817 23.8793C145.817 22.402 146.141 21.1499 146.79 20.123C147.438 19.078 148.267 18.2853 149.276 17.7448C150.303 17.2044 151.375 16.9341 152.492 16.9341ZM152.411 17.4746C151.888 17.4746 151.438 17.6367 151.06 17.961C150.699 18.2673 150.411 18.8258 150.195 19.6365C149.997 20.4292 149.888 21.5552 149.87 23.0145H154.492C154.672 21.0508 154.6 19.6365 154.275 18.7718C153.951 17.907 153.33 17.4746 152.411 17.4746Z" fill="#35744B"/>
<path d="M164.081 30.7435C163.198 30.7435 162.405 30.6354 161.703 30.4192C161 30.221 160.351 29.9688 159.757 29.6625L159.784 26.4466H160.054L160.973 28.0681C161.369 28.7887 161.802 29.3292 162.27 29.6895C162.757 30.0318 163.369 30.203 164.108 30.203C164.973 30.203 165.666 30.0138 166.189 29.6355C166.729 29.2391 166.999 28.7166 166.999 28.0681C166.999 27.4735 166.81 26.9871 166.432 26.6088C166.053 26.2304 165.351 25.8881 164.324 25.5818L163.189 25.2305C162.09 24.9062 161.225 24.4018 160.595 23.7172C159.964 23.0326 159.649 22.1948 159.649 21.2039C159.649 20.0149 160.117 19.006 161.054 18.1772C161.991 17.3485 163.333 16.9341 165.081 16.9341C165.783 16.9341 166.441 17.0152 167.053 17.1773C167.684 17.3215 168.287 17.5467 168.864 17.8529L168.702 20.7715H168.432L167.486 19.096C167.143 18.5015 166.801 18.0871 166.459 17.8529C166.135 17.6007 165.639 17.4746 164.973 17.4746C164.36 17.4746 163.783 17.6457 163.243 17.9881C162.702 18.3304 162.432 18.8168 162.432 19.4474C162.432 20.0599 162.657 20.5463 163.108 20.9067C163.576 21.267 164.261 21.6003 165.162 21.9066L166.378 22.2579C167.675 22.6542 168.603 23.2037 169.161 23.9063C169.72 24.591 169.999 25.4197 169.999 26.3926C169.999 27.7077 169.477 28.7617 168.432 29.5544C167.405 30.3471 165.954 30.7435 164.081 30.7435Z" fill="#35744B"/>
<path d="M103.364 14.9613C103.797 15.3397 104.319 15.5289 104.932 15.5289C105.544 15.5289 106.058 15.3397 106.472 14.9613C106.887 14.565 107.094 14.0696 107.094 13.475C107.094 12.8625 106.887 12.367 106.472 11.9887C106.058 11.6104 105.544 11.4212 104.932 11.4212C104.319 11.4212 103.797 11.6104 103.364 11.9887C102.95 12.367 102.743 12.8625 102.743 13.475C102.743 14.0696 102.95 14.565 103.364 14.9613Z" fill="#58C27D"/>
</svg>
