<svg width="76" height="68" viewBox="0 0 76 68" fill="none" xmlns="http://www.w3.org/2000/svg">
<path fill-rule="evenodd" clip-rule="evenodd" d="M21.6033 34.3864C21.2347 34.2803 20.9099 34.0561 20.6776 33.7473C20.5467 33.5746 20.4301 33.3913 20.3289 33.1992C20.3086 33.1604 20.358 33.063 20.4003 33.0157C20.4272 32.9862 20.5101 32.9862 20.5524 33.0063C20.6165 33.0394 20.6736 33.0849 20.7204 33.1403C20.8129 33.2411 20.9256 33.3208 21.051 33.3739C21.1763 33.4271 21.3114 33.4525 21.4473 33.4485C21.6999 33.4485 21.9525 33.4485 22.2055 33.4302C22.5833 33.4029 22.9055 33.2649 23.0999 32.9044C23.1434 32.8247 23.1968 32.7509 23.2586 32.6847C23.7823 32.1067 23.9921 31.393 24.131 30.6497C24.142 30.5997 24.1222 30.543 24.1107 30.43C23.9899 30.4139 23.9004 30.3911 23.8158 30.3956C23.2207 30.4351 22.6231 30.3971 22.0375 30.2826C21.8779 30.2518 21.7128 30.2781 21.5703 30.3572C21.4583 30.4161 21.3499 30.4862 21.237 30.5407C20.6353 30.8333 20.0027 31.0392 19.3626 31.2299C19.1005 31.3081 18.82 31.2944 18.5665 31.1911C17.9736 30.9601 17.4147 30.672 16.9496 30.2236C16.6767 29.9605 16.5335 29.6161 16.4286 29.2718C16.1952 28.5209 16.0664 27.7406 16.0459 26.9536C16.0415 26.7812 16.1557 26.6655 16.3479 26.6227C16.4863 26.5909 16.6163 26.6633 16.6274 26.8013C16.6462 27.0009 16.6469 27.2019 16.6296 27.4016C16.5714 27.9479 16.7124 28.4146 17.1193 28.7907C17.2222 28.893 17.3166 29.0037 17.4014 29.1217C17.6289 29.4076 17.9083 29.6469 18.2244 29.8265C18.6181 30.0579 19.0563 30.0624 19.49 30.0235C19.9776 29.9762 20.4338 29.806 20.8835 29.6112C20.9439 29.5862 20.9888 29.5219 21.0598 29.4571C20.9324 29.2785 20.8226 29.1195 20.6996 28.9658C20.3823 28.5714 20.2033 28.1207 20.116 27.6258C20.0759 27.3922 20.0155 27.1609 19.9838 26.9255C19.8586 25.9987 20.116 25.1942 20.7468 24.5095C20.7754 24.4879 20.8081 24.4727 20.8429 24.4648C20.8627 24.4663 20.8822 24.4701 20.9011 24.476C20.9994 24.5207 20.9893 24.6189 20.9893 24.7074C20.9893 25.0924 20.9734 25.4756 20.9822 25.8607C20.9947 26.3371 21.0823 26.8085 21.2419 27.2569C21.5795 28.2333 22.2482 28.8296 23.2546 29.0435C23.8558 29.1762 24.473 29.2181 25.0862 29.1682C25.8204 29.1079 26.5315 28.88 27.1665 28.5017C27.1061 28.4088 27.0783 28.3115 27.0144 28.2753C26.7499 28.1257 26.5872 27.8854 26.4307 27.6384C26.3563 27.5126 26.2757 27.3909 26.1892 27.2734C25.8806 26.8714 25.8131 26.4078 25.8691 25.9227C25.8864 25.759 25.9442 25.6023 26.0371 25.4671C26.249 25.1714 26.483 24.8926 26.7371 24.6332C26.8693 24.5019 27.0704 24.4251 27.2537 24.3545C27.3141 24.3295 27.4371 24.3751 27.486 24.4296C27.5122 24.4634 27.5303 24.5029 27.5389 24.5449C27.5474 24.587 27.5463 24.6306 27.5354 24.6721C27.453 24.8552 27.3556 25.031 27.2445 25.1978C26.9875 25.5998 26.9963 26.0223 27.1418 26.4578C27.2088 26.6593 27.3432 26.7933 27.5063 26.9224C27.9692 27.2846 28.488 27.3596 29.0408 27.2484C29.5372 27.151 30.0269 27.0251 30.5233 26.9268C30.7881 26.8714 31.0565 26.835 31.3265 26.8178C31.578 26.8041 31.8224 26.7274 32.0375 26.5945C33.3908 25.7762 35.2405 25.2304 36.7366 24.6435C37.0051 24.539 37.2511 24.3782 37.5147 24.2625C37.8594 24.1107 38.1724 24.3103 38.2037 24.6886C38.2173 24.8338 38.2037 24.9856 38.2328 25.1259C38.2998 25.4229 38.2328 25.6882 38.1614 25.9804C38.045 26.4449 37.8166 26.8076 37.5001 27.1452C37.4419 27.2064 37.386 27.2699 37.33 27.3355C37.2026 27.5258 37.0752 27.7161 36.9385 27.9019C36.8468 28.0269 36.7529 28.1517 36.6568 28.2762C36.5048 28.5276 36.3615 28.7858 36.2209 29.0467C36.1539 29.1735 36.0886 29.3048 36.0084 29.425C35.7128 29.8707 35.5946 30.4132 35.6773 30.9436C35.7414 31.3944 35.8279 31.8416 35.9365 32.2836C36.9654 36.3875 38.1018 34.6223 37.773 41.9761C37.7439 42.6175 37.6544 43.2517 37.4375 43.8547C37.3145 44.1946 37.1219 44.5117 36.9363 44.8222C36.6657 45.2755 36.3707 45.7106 36.0886 46.1572C35.9564 46.3725 35.8241 46.5923 35.6954 46.812C35.5632 47.0479 35.4111 47.2765 35.3842 47.5642C35.3655 47.691 35.3214 47.8126 35.2546 47.9215C34.965 48.4281 34.7274 48.9635 34.5458 49.5192C34.4135 49.9158 34.3196 50.3281 34.2032 50.7314C33.9573 51.5926 33.7047 52.4493 33.4631 53.3127C33.4049 53.5213 33.3445 53.7433 33.3511 53.9563C33.3736 54.5955 33.188 55.1868 33.0227 55.7849C32.9108 56.1905 32.8023 56.592 32.8213 57.0226C32.8323 57.2352 32.7772 57.4599 32.7115 57.6658C32.5616 58.1191 32.6313 58.5703 32.6961 59.021C32.6967 59.0577 32.7068 59.0938 32.7252 59.1255C33.0227 59.4971 33.1435 59.9661 33.4093 60.356C33.5614 60.5793 33.6888 60.8205 33.8568 61.0993C33.9449 61.1037 34.0873 61.1176 34.2279 61.1243C35.002 61.1738 35.78 61.106 36.5519 61.2194C36.9632 61.2784 37.3727 61.344 37.7862 61.3329C37.8411 61.3293 37.8959 61.3402 37.9454 61.3646C37.9677 61.3774 37.9873 61.3946 38.003 61.4151C38.0187 61.4357 38.0303 61.4592 38.037 61.4843C38.0437 61.5321 38.019 61.6116 37.9855 61.6294C37.8938 61.6817 37.7884 61.7384 37.6901 61.7384C37.0752 61.7407 36.4602 61.7451 35.8475 61.7134C35.2348 61.6817 34.6238 61.6205 34.0088 61.6455C33.6509 61.6589 33.2907 61.5955 32.931 61.5615C32.1376 61.4892 31.3441 61.5254 30.5533 61.4981C30.4087 61.495 30.2643 61.5057 30.1217 61.5298C29.3904 61.6433 28.6635 61.6973 27.9141 61.6361C26.9975 61.5554 26.0758 61.5539 25.159 61.6317C24.6913 61.6728 24.2196 61.6317 23.7483 61.65C23.4891 61.6612 23.2317 61.6678 22.9725 61.6701C23.1795 61.7109 23.3908 61.7239 23.6011 61.7089L24.887 61.7902C24.9787 61.7974 25.1197 61.8086 25.2582 61.8175C26.0322 61.8675 26.8125 61.7974 27.5844 61.9104C27.9934 61.9693 28.403 62.0372 28.8186 62.0261C28.854 62.0235 28.8896 62.0265 28.924 62.035L29.0333 62.0328C29.2629 62.0463 29.4932 62.0425 29.7223 62.0216L30.9703 61.9988C31.0867 62.0104 31.1907 62.0261 31.2969 62.0283C31.7845 62.035 32.272 62.0328 32.7618 62.0395C33.2114 62.0466 33.6625 62.0572 34.1151 62.0712C34.6921 62.0873 35.2713 62.144 35.8462 62.1158C36.5819 62.0841 37.3154 61.9868 38.0983 61.914L39.1964 61.9823C39.4085 62.0234 39.6249 62.0371 39.8404 62.0229L41.1241 62.1047C41.2158 62.1114 41.3568 62.1225 41.4957 62.1315C42.2693 62.1815 43.05 62.1114 43.8215 62.2248C44.231 62.2833 44.6401 62.3517 45.0584 62.3401C45.1122 62.3355 45.1663 62.3457 45.2149 62.3695C45.2609 62.3962 45.2947 62.4402 45.3088 62.4919C45.3132 62.5366 45.2907 62.6165 45.255 62.6371C45.1633 62.6871 45.0606 62.7456 44.9601 62.7456C44.3469 62.7456 43.7298 62.7506 43.117 62.7211C42.5043 62.6916 41.896 62.6259 41.281 62.6505C40.9231 62.6666 40.5607 62.6009 40.2028 62.567C39.4093 62.4942 38.6158 62.533 37.8224 62.5035C37.6786 62.5013 37.5349 62.5119 37.393 62.5353C36.659 62.6483 35.9326 62.705 35.1854 62.6416C34.2679 62.5608 33.3453 62.5593 32.4276 62.6371C31.9626 62.6818 31.4904 62.6371 31.021 62.6576C29.632 62.7139 28.2407 62.6416 26.8544 62.7662C26.2615 62.8207 25.6641 62.8046 25.0695 62.814C24.4008 62.8251 23.7342 62.8251 23.0655 62.8318C22.7212 62.8318 22.3787 62.8162 22.0547 62.6844C22.0168 62.6688 21.9608 62.5915 21.9696 62.5737C21.9965 62.5169 22.0525 62.4424 22.0992 62.4397C22.4418 62.4285 22.7838 62.4557 23.1259 62.433C23.6403 62.4013 24.1548 62.3651 24.6714 62.3289C24.4343 62.3106 24.1971 62.2744 23.9626 62.2539C23.1691 62.1793 22.3756 62.2177 21.5822 62.1882C21.4383 62.1861 21.2946 62.1975 21.1528 62.2221C20.9002 62.261 20.6472 62.2927 20.3946 62.3151H18.7887C18.6212 62.3017 18.451 62.2927 18.2835 62.2833C18.2967 62.295 18.3126 62.3039 18.3276 62.3151H10.1857C10.0528 62.3156 9.92543 62.3693 9.83128 62.4643C9.73713 62.5594 9.68375 62.6882 9.6827 62.8229C9.68328 62.9579 9.73645 63.0873 9.83064 63.1828C9.92482 63.2783 10.0524 63.3323 10.1857 63.333H19.9481C24.1409 65.7748 28.8937 67.0566 33.7298 67.0496C49.0297 67.0496 61.4317 54.4838 61.4317 38.9808C61.4391 34.1406 60.2044 29.3817 57.8487 25.171L56.7123 24.9477L55.3819 27.4043L55.0416 24.6212L52.3222 24.0999L54.8313 22.9199L54.5184 20.4338C49.4415 14.5982 42.0115 10.9159 33.732 10.9159C18.4316 10.9159 6.03008 23.484 6.03008 38.9843C6.03008 47.5347 9.80085 55.19 15.7501 60.3386H1.00255C0.86945 60.3387 0.741805 60.3922 0.647484 60.4873C0.553164 60.5825 0.499829 60.7116 0.49913 60.8465C0.499364 60.9816 0.552492 61.1112 0.646863 61.2067C0.741233 61.3022 0.869145 61.356 1.00255 61.3561H16.9981C17.0222 61.3562 17.0463 61.3539 17.0699 61.3494C17.9957 61.286 18.924 61.2154 19.8497 61.1475C20.0644 61.1319 20.2791 61.1274 20.5141 61.0546C20.5084 60.961 20.4965 60.8678 20.4784 60.7759C20.4515 60.6897 20.3933 60.6128 20.3686 60.5266C20.2165 60.017 19.9348 59.6159 19.4698 59.3461C19.17 59.1737 19.0514 58.895 19.0135 58.5323C18.922 57.6593 18.7081 56.804 18.3783 55.9922C18.1724 55.4843 17.9578 54.9814 17.7744 54.4668C17.6289 54.0613 17.3917 53.7214 17.1458 53.3815C17.0721 53.2796 16.9694 53.1889 16.9157 53.0777C16.8037 52.849 16.712 52.6177 16.8372 52.3506C16.9981 52.0058 17.1123 51.6435 17.2824 51.2965C17.5284 50.7913 17.6849 50.2428 17.6064 49.6537C17.4971 48.8376 17.3604 48.0309 17.0744 47.2538C16.8707 46.7053 16.7054 46.1456 16.522 45.5904C16.4814 45.4703 16.4369 45.3523 16.3854 45.2049L16.3651 45.2121C16.2848 45.5042 16.0724 45.69 15.7567 45.8169C15.4147 45.9553 15.0748 46.0402 14.708 46.0143C14.6819 46.0097 14.6577 45.9971 14.6388 45.9781C14.5223 45.9975 14.4042 46.0057 14.2862 46.0027C14.0001 46.0027 13.7131 45.996 13.4231 45.9826C13.1815 45.971 12.9575 45.9098 12.8191 45.6788C12.7631 45.5837 12.775 45.4363 12.8703 45.3885C13.0827 45.2889 13.2974 45.1464 13.5192 45.1281C13.9551 45.0942 14.1857 44.8923 14.2302 44.4483C14.9439 44.07 15.4156 43.4465 15.8696 42.8077C16.0375 42.5697 16.2275 42.3432 16.3616 42.0846C16.5092 41.797 16.7261 41.5839 16.9721 41.3981C17.4776 41.0148 17.9927 40.6462 18.5176 40.2922C18.8019 40.0996 19.1127 39.9478 19.4169 39.7892C19.5316 39.7354 19.6526 39.6966 19.777 39.6735C20.0415 39.6123 20.306 39.5623 20.5731 39.5105C20.6425 39.4928 20.7141 39.4851 20.7856 39.4877C21.3961 39.5489 22.0089 39.5556 22.6106 39.7111C22.9771 39.8053 23.3503 39.8704 23.7267 39.9058C24.1067 39.9402 24.4735 39.8084 24.8425 39.7316C25.7911 39.5342 26.6432 39.088 27.5019 38.6596C27.6496 38.5873 27.788 38.4988 27.9379 38.4363C28.4669 38.213 28.8574 37.811 29.2484 37.409C29.546 37.0963 29.5729 36.6885 29.6558 36.2964C29.6624 36.2423 29.6646 36.1878 29.6624 36.1333C29.6937 34.9796 29.7003 33.8263 29.7677 32.6753C29.8056 32.0201 29.9441 31.372 30.0322 30.7216C30.0459 30.6323 30.0503 30.543 30.0591 30.4268C29.6655 30.2928 29.2295 30.35 28.8649 30.0941C28.8424 29.9306 28.8649 29.7926 29.0527 29.7064C29.5605 29.4754 29.9114 29.0538 30.265 28.6389C30.3298 28.562 30.3456 28.4441 30.4034 28.2967C30.283 28.2967 30.1865 28.2672 30.1239 28.3012C29.4398 28.6706 28.7618 29.056 28.082 29.4277C27.8427 29.559 27.6011 29.6791 27.3529 29.785C27.0197 29.9252 26.671 30.0248 26.3487 30.1839C26.038 30.3357 25.7757 30.5622 25.6086 30.8815C25.5572 30.9778 25.513 31.0778 25.4764 31.1808C25.1475 32.1326 24.6088 32.9598 23.9176 33.6647C23.2934 34.2989 22.5242 34.6433 21.6051 34.3873L21.6033 34.3864ZM45.4957 20.8938L47.3855 22.9422L49.8885 21.746L48.5488 24.1977L50.4443 26.2399L47.7293 25.707L46.3985 28.1636L46.0591 25.3854L43.3414 24.8642L45.8466 23.6743L45.4957 20.8938ZM42.0132 13.6352L43.568 15.3213L45.6253 14.3356L44.5233 16.3544L46.0842 18.0339L43.8479 17.5966L42.7529 19.6204L42.4734 17.329L40.2367 16.9007L42.2989 15.9239L42.0132 13.6352ZM21.4909 60.7576C21.4125 60.406 21.2449 60.1162 20.9386 59.912C20.9298 59.9053 20.9227 59.9009 20.9161 59.8964C20.9785 60.018 21.0244 60.1475 21.0527 60.2814C21.1144 60.5456 21.2277 60.7945 21.386 61.0135L21.5716 61.0202C21.5377 60.935 21.5107 60.8472 21.4909 60.7576ZM25.2639 46.6937C24.9487 46.0929 25.352 45.3113 24.7071 44.0968C24.47 43.7542 24.1504 43.5979 24.0459 43.1878C23.9992 42.9976 23.963 42.8051 23.9163 42.5737C23.8356 42.7595 23.7911 42.9114 23.7867 43.0722C23.9273 43.2557 24.1151 43.4009 24.2716 43.6229C24.9738 44.9463 24.4325 45.7552 24.9289 46.3743C24.9955 46.4609 25.0714 46.5398 25.155 46.6097C25.1907 46.6369 25.2282 46.6642 25.2639 46.6937ZM31.3564 46.5507C31.1708 46.7164 31.0633 46.9679 30.8958 47.1559C30.6877 47.3896 30.6674 47.6388 30.7591 47.9197C30.8305 48.1462 30.9068 48.3726 30.9584 48.604C31.144 49.4402 31.3181 50.2808 31.4993 51.1174C31.5217 51.2259 31.5574 51.3304 31.5777 51.4367C31.6628 51.8561 31.6963 52.2706 31.4794 52.665C31.4538 52.7135 31.4328 52.7644 31.4168 52.8169C31.3005 53.168 31.2405 53.5195 31.3807 53.8889C31.4525 54.0724 31.475 54.2783 31.5015 54.4758C31.5486 54.838 31.5777 55.2029 31.6222 55.5656C31.6963 56.1525 31.5932 56.7327 31.5733 57.3174C31.5733 57.3853 31.5292 57.4554 31.5015 57.5215C31.4133 57.7413 31.3428 57.9744 31.2264 58.1786C31.0792 58.439 31.0765 58.677 31.1797 58.9602C31.3785 59.4886 31.5354 60.0322 31.553 60.6102C31.5648 60.712 31.5842 60.8128 31.6112 60.9117C31.7479 60.9456 31.8709 60.9706 31.9868 60.9885C31.9555 60.4494 31.8034 59.9348 31.6178 59.4341C31.5129 59.1509 31.5151 58.9151 31.6619 58.652C31.7783 58.4483 31.8475 58.2147 31.937 57.9972C31.9639 57.9293 32.0062 57.8592 32.0106 57.7909C32.0172 57.585 32.0331 57.3808 32.049 57.1767V57.1722C32.0106 57.0829 32.0331 56.9569 32.0622 56.8551C32.0666 56.8368 32.071 56.8212 32.0754 56.8029C32.0919 56.5497 32.086 56.2956 32.0578 56.0435C32.0137 55.6786 31.9837 55.3137 31.937 54.951C31.9101 54.754 31.8876 54.549 31.8184 54.3641C31.6773 53.9947 31.7355 53.6459 31.8519 53.2921C31.8692 53.2401 31.8902 53.1893 31.9145 53.1403C32.1349 52.7459 32.0979 52.3314 32.015 51.912C31.993 51.8057 31.9568 51.7016 31.9348 51.5948C31.7558 50.7564 31.579 49.9158 31.3935 49.0792C31.3419 48.8483 31.2661 48.6214 31.1942 48.395C31.1025 48.114 31.1228 47.8648 31.3309 47.6312C31.5006 47.4431 31.6081 47.1917 31.7915 47.0264C32.015 46.8245 31.9974 46.5275 32.1473 46.3033C32.1742 46.2586 32.116 46.1313 32.0644 46.0701C32.038 46.0481 32.0069 46.0325 31.9735 46.0248C31.9401 46.017 31.9055 46.0173 31.8722 46.0255C31.7647 46.0688 31.662 46.1234 31.5658 46.1885C31.5217 46.3202 31.4719 46.4493 31.3556 46.5534L31.3564 46.5507ZM28.2879 28.0837C28.6657 28.3517 28.8918 28.3423 29.1576 28.068C29.1729 28.0476 29.1833 28.0239 29.188 27.9987C29.1926 27.9735 29.1915 27.9475 29.1845 27.9229C29.1706 27.9021 29.1524 27.8847 29.1311 27.8719C29.1099 27.859 29.0861 27.8509 29.0615 27.8483C28.7776 27.8143 28.574 28.0296 28.2879 28.0837ZM33.5213 28.8568C33.5905 29.1061 33.7541 29.2874 33.9665 29.3598C33.9665 29.3508 33.9595 29.3415 33.9573 29.3303C33.9039 29.14 33.8969 28.9359 33.859 28.7389C33.8343 28.6232 33.7651 28.5415 33.6386 28.5326C33.5781 28.5286 33.5182 28.5454 33.4684 28.5803C33.4808 28.6735 33.4979 28.7659 33.5213 28.8568ZM34.6304 30.0418C34.2103 30.187 33.8435 30.0735 33.4966 29.8743C33.5169 29.9239 33.5407 29.9762 33.5636 30.0262C33.6077 30.1191 33.7003 30.1981 33.7875 30.2571C34.1477 30.4907 34.5255 30.656 34.9592 30.547C34.9592 30.5023 34.9592 30.4576 34.9592 30.4157C34.9592 30.2933 34.9324 30.1687 34.9191 30.0373C34.8072 30.0373 34.7111 30.0146 34.6326 30.0418H34.6304ZM31.1731 28.1927C31.0814 28.4486 30.9897 28.705 30.9086 28.9631C30.8861 29.0377 30.8975 29.1262 30.8927 29.2311C31.5663 28.8617 31.8277 28.2226 31.6218 27.4445C31.5641 27.5124 31.4988 27.5553 31.4896 27.6098C31.4539 27.7844 31.4671 27.9747 31.259 28.0631C31.2189 28.0788 31.192 28.1444 31.1744 28.1922L31.1731 28.1927ZM21.1665 28.512C21.0122 28.1498 20.8266 27.7974 20.7124 27.4244C20.5983 27.0514 20.5493 26.6405 20.4687 26.2184C20.3364 27.0706 20.6119 28.0341 21.1665 28.512ZM22.5599 29.7153L21.5848 29.056C21.5848 29.1061 21.5782 29.1422 21.5914 29.165C21.6831 29.3214 21.7796 29.4732 21.8665 29.6157C22.0547 29.6747 22.2266 29.7292 22.399 29.7765C22.455 29.7903 22.5352 29.8288 22.5599 29.7153ZM25.0179 31.1227C25.2507 30.6265 25.5301 30.1825 25.926 29.8109C25.6509 29.8198 25.3759 29.8265 25.1008 29.8448C25.0651 29.8448 25.0126 29.9172 25.0091 29.9601C25.0047 29.9945 25.0532 30.0494 25.0893 30.0735C25.1453 30.103 25.2348 30.0735 25.2485 30.1754C25.2282 30.2048 25.2172 30.2526 25.1903 30.2616C24.8257 30.3929 24.6802 30.7038 24.5731 31.0414C24.5127 31.2339 24.4656 31.4287 24.4096 31.619C24.3069 31.9633 24.2037 32.3082 23.9802 32.6016C24.0878 32.6266 24.1592 32.5654 24.2328 32.4859C24.5974 32.0942 24.7944 31.5953 25.0157 31.1241L25.0179 31.1227ZM30.6542 30.9936C30.3677 32.1018 30.2804 33.2305 30.3456 34.3704C30.3681 34.7692 30.4373 35.1681 30.507 35.5643C30.529 35.7005 30.6097 35.8323 30.6833 35.9565C30.7635 36.0905 30.8645 36.2195 30.9628 36.3584C31.0006 36.3629 31.0387 36.3629 31.0765 36.3584C31.0153 36.2601 30.9706 36.1522 30.9443 36.0391C30.8675 35.6445 30.8137 35.2457 30.7834 34.8447C30.7186 33.7049 30.8059 32.5761 31.0919 31.468C31.1254 31.3434 31.1545 31.221 31.1801 31.0964C31.2383 30.836 31.3498 30.6435 31.6161 30.5211C32.1618 30.2714 32.4885 29.823 32.589 29.2222C32.6421 28.9539 32.6766 28.6821 32.6921 28.4088C32.7053 28.026 32.8283 27.7469 33.1951 27.5794C34.358 27.047 36.1609 26.1858 37.3441 25.7892C37.3075 25.6093 37.2335 25.4394 37.1272 25.2907C37.0836 25.2823 37.0391 25.2799 36.9949 25.2836C35.8162 25.6668 33.9533 26.5597 32.7569 27.1059C32.3902 27.2734 32.2694 27.5526 32.2557 27.9354C32.2401 28.2086 32.2058 28.4804 32.153 28.7487C32.0503 29.3495 31.7258 29.7979 31.1801 30.0472C30.9116 30.1696 30.8019 30.3598 30.7441 30.6229C30.7172 30.7453 30.6859 30.8699 30.656 30.9945L30.6542 30.9936ZM29.0796 38.2952C28.5652 38.803 28.1045 39.3399 27.7867 39.9947L27.93 39.9406C28.0305 40.0675 27.9141 40.1693 27.8784 40.2734C27.8343 40.398 27.7845 40.5226 27.8607 40.6405C27.8876 40.6852 27.9992 40.7201 28.0371 40.6973C28.1137 40.6496 28.1749 40.5804 28.2134 40.4981C28.5312 39.8281 28.9985 39.2832 29.5195 38.7691C29.7611 38.531 29.9895 38.2777 30.2376 38.0392C30.7296 37.5653 31.3335 37.3456 31.933 37.0941C32.0424 37.0494 32.1477 36.9878 32.2817 36.9194C31.982 36.5889 31.6756 36.8654 31.4027 36.8301C31.3714 36.7854 31.3379 36.7408 31.3066 36.6983C30.7697 36.9181 30.242 37.1405 29.8012 37.564C29.5552 37.802 29.3251 38.0553 29.0836 38.2938L29.0796 38.2952ZM22.6225 41.0939C22.8342 41.1383 23.0511 41.1513 23.2665 41.1323C23.9298 41.0639 24.588 40.9518 25.237 40.7969C25.9057 40.6316 26.5744 40.4775 27.2141 40.2216C27.2793 40.1943 27.3463 40.1693 27.4111 40.1421C27.3551 40.0313 27.4023 39.9156 27.4424 39.7999C27.4759 39.6959 27.5945 39.5936 27.494 39.4667C27.2454 39.5641 27.0091 39.6525 26.7781 39.7477C26.1385 40.0041 25.4675 40.1582 24.801 40.3234C24.1513 40.4781 23.4924 40.5902 22.8284 40.6589C22.6136 40.677 22.3974 40.6633 22.1865 40.6182C21.6183 40.5115 21.0457 40.4592 20.4709 40.4074C20.3817 40.4055 20.293 40.4206 20.2095 40.4521C19.3997 40.7084 18.608 41.0095 17.8498 41.4017C17.5578 41.545 17.3051 41.759 17.114 42.0247C16.541 42.8225 15.978 43.6291 15.3023 44.3474C14.9646 44.7047 14.6785 45.1067 14.213 45.3104C14.1946 45.3263 14.1804 45.3467 14.1718 45.3696C14.1633 45.3926 14.1606 45.4174 14.1641 45.4417C14.1737 45.4655 14.189 45.4867 14.2085 45.5033C14.228 45.5198 14.2512 45.5313 14.276 45.5368C14.6044 45.5618 14.9157 45.4921 15.2242 45.3783C15.4032 45.2041 15.5641 45.0066 15.7387 44.8208C15.8145 44.7391 15.8908 44.6578 15.9622 44.5738C15.9666 44.5461 15.9689 44.518 15.9688 44.4898C15.9732 44.4005 15.978 44.3063 15.9891 44.2156C16.0031 44.1072 16.024 43.9997 16.0517 43.894C16.1076 43.6877 16.2148 43.5291 16.4484 43.5018C16.4992 43.4866 16.548 43.4653 16.5939 43.4384C16.6675 43.3071 16.7235 43.1704 16.8143 43.0556C16.9897 42.8249 17.1764 42.6032 17.3737 42.3914C17.4021 42.3715 17.435 42.3593 17.4694 42.3557C17.5038 42.3522 17.5385 42.3576 17.5703 42.3713C17.5878 42.3827 17.6043 42.3955 17.6196 42.4098C17.801 42.1844 18.0284 42.0016 18.2862 41.8738C19.0439 41.4821 19.8361 41.1828 20.6476 40.9269C20.7308 40.8932 20.8199 40.8769 20.9095 40.8791C21.4825 40.9336 22.0556 40.9858 22.6225 41.0921V41.0939ZM19.1202 51.3483C19.3014 50.8927 19.2524 50.4125 19.2366 49.948C19.2229 49.5907 19.1202 49.2226 18.9994 48.8805C18.7349 48.1234 18.4334 47.3779 18.1429 46.6302C18.102 46.529 18.0479 46.4337 17.982 46.347C17.4314 45.5855 17.4385 44.7837 17.8118 43.9583C17.9101 43.7408 18.0177 43.53 18.1094 43.3102C18.1429 43.2307 18.172 43.1289 18.1561 43.0498C18.1326 42.9655 18.0792 42.8928 18.0062 42.8457C17.9622 42.8185 17.8453 42.8274 17.8096 42.8685C17.7021 42.9815 17.5994 43.1016 17.4967 43.2218C17.4561 43.308 17.4138 43.3964 17.3759 43.4849C16.9999 44.3094 16.9954 45.112 17.5456 45.8731C17.6107 45.9604 17.6647 46.0555 17.7065 46.1563C17.9996 46.9045 18.2972 47.65 18.5634 48.407C18.6842 48.7492 18.7869 49.1163 18.8002 49.4741C18.8182 49.9386 18.8654 50.4192 18.682 50.8748C18.6346 51.0136 18.6075 51.1587 18.6013 51.3054C18.5752 51.7445 18.4754 52.176 18.306 52.5811C18.2247 52.7476 18.2089 52.9392 18.2619 53.117C18.414 53.586 18.5595 54.055 18.7226 54.5195C18.8725 54.9501 19.0448 55.374 19.2035 55.8001C19.3221 56.1262 19.4385 56.4504 19.5456 56.7827C19.5914 56.9397 19.6281 57.0993 19.6553 57.2607C19.7581 57.7592 19.8118 58.2648 20.0018 58.7494C20.116 59.0397 20.2522 59.2755 20.5004 59.4408C20.5185 59.4515 20.5357 59.4636 20.552 59.477C20.5097 59.3952 20.4716 59.3113 20.4378 59.2255C20.2478 58.7382 20.194 58.2331 20.0913 57.7341C20.0641 57.5728 20.0274 57.4132 19.9816 57.2562C19.8744 56.9252 19.7581 56.6014 19.6373 56.2771C19.4808 55.8488 19.3084 55.4249 19.1585 54.9943C18.9954 54.5298 18.85 54.0608 18.6979 53.5918C18.6397 53.4083 18.6666 53.2314 18.742 53.0558C18.9106 52.6503 19.011 52.2189 19.0391 51.7797C19.0432 51.6328 19.0709 51.4866 19.1202 51.3483ZM25.8568 49.2521C25.3935 49.0618 24.9108 48.885 24.3871 48.9305C24.2789 48.9295 24.171 48.9172 24.0653 48.8939C23.7832 48.8555 23.7497 48.8622 23.6311 49.0913C23.5663 49.2182 23.524 49.3593 23.4702 49.4933C23.4433 49.559 23.4301 49.6474 23.382 49.6858C23.1651 49.8538 23.0779 50.0847 23.0219 50.3406C23.0078 50.4122 22.9728 50.4779 22.9214 50.5291C22.7765 50.6592 22.6446 50.8034 22.5277 50.9597C22.5277 50.9619 22.5277 50.9664 22.5233 50.9686C22.472 51.0612 22.4089 51.1465 22.3355 51.2223C22.2258 51.3764 22.1186 51.5305 21.9979 51.6734C21.6844 52.0518 21.405 52.4596 21.2084 52.9151C21.1145 53.1327 21.0761 53.3841 20.9531 53.5744C20.723 53.9237 20.7071 54.2976 20.7428 54.6803C20.8103 55.3896 20.8998 56.0967 20.9778 56.8037C21.0382 57.3612 21.3305 57.8351 21.5324 58.3402C21.5592 58.4037 21.6205 58.4515 21.6734 58.506C21.8458 58.6895 22.0133 58.8776 22.2258 59.0245C22.3981 59.1469 22.5299 59.3305 22.6754 59.4895C22.8478 59.6775 22.9976 59.8884 23.1898 60.0492C23.4102 60.2327 23.5544 60.4458 23.6126 60.7267C23.6368 60.8177 23.6662 60.9072 23.7007 60.9947C23.8171 61.0041 23.9211 61.022 24.0269 61.0242C24.5149 61.0291 25.0047 61.0291 25.4922 61.0358C25.9441 61.0425 26.3933 61.0537 26.8451 61.0653C27.4221 61.0832 28.0014 61.1377 28.5762 61.1127C29.3119 61.0787 30.0459 60.9836 30.8305 60.909C30.8711 60.5713 30.7679 60.3015 30.6542 60.034C30.4995 59.6829 30.3456 59.3314 30.1909 58.9825C30.1027 58.7878 30.1027 58.6221 30.2244 58.4207C30.4034 58.1281 30.5264 57.7998 30.663 57.48C30.7782 57.2105 30.8368 56.9196 30.8349 56.626C30.8376 56.2767 30.8283 55.9301 30.8442 55.5835C30.8632 55.1624 30.8055 54.7413 30.674 54.3413C30.6273 54.2029 30.6053 54.057 30.6092 53.9108C30.6251 53.6026 30.6652 53.2944 30.7031 52.9862C30.7724 52.4176 30.8063 51.8396 30.6494 51.2956C30.4995 50.7676 30.3813 50.233 30.2425 49.7028C30.1014 49.1588 30.0503 49.1248 29.4865 49.1905C28.6971 49.2799 27.9012 49.2949 27.1091 49.2351C27.006 49.228 26.9011 49.2847 26.8006 49.2869C26.4872 49.2959 26.19 49.3843 25.8612 49.2508L25.8568 49.2521Z" fill="url(#paint0_linear_1_13)"/>
<path fill-rule="evenodd" clip-rule="evenodd" d="M62.5294 19.8558L63.489 20.8983L64.7617 20.2886L64.0819 21.5375L65.0456 22.5755L63.6658 22.3057L62.9883 23.5546L62.8159 22.14L61.4335 21.8751L62.7083 21.2721L62.5294 19.8558Z" fill="url(#paint1_linear_1_13)"/>
<path fill-rule="evenodd" clip-rule="evenodd" d="M50.8926 6.84153L51.8545 7.88403L53.1249 7.27434L52.4452 8.52275L53.4088 9.56078L52.0291 9.28877L51.3515 10.5399L51.1792 9.12573L49.7972 8.86042L51.0716 8.25565L50.8926 6.84153Z" fill="url(#paint2_linear_1_13)"/>
<path fill-rule="evenodd" clip-rule="evenodd" d="M54.9323 13.6151L56.2336 15.0265L57.9581 14.202L57.0346 15.8899L58.3429 17.2973L56.4708 16.9302L55.5539 18.6252L55.3211 16.7082L53.4472 16.3477L55.1734 15.5299L54.9323 13.6151Z" fill="url(#paint3_linear_1_13)"/>
<path fill-rule="evenodd" clip-rule="evenodd" d="M64.3076 9.28206L65.1553 10.2022L66.2781 9.66485L65.6764 10.7663L66.5285 11.682L65.3096 11.4439L64.7123 12.5476L64.5602 11.2987L63.3391 11.0633L64.4641 10.5305L64.3076 9.28206Z" fill="url(#paint4_linear_1_13)"/>
<path fill-rule="evenodd" clip-rule="evenodd" d="M58.249 5.16209L58.7947 5.75347L59.5168 5.40686L59.1302 6.11616L59.6781 6.7053L58.8931 6.5512L58.5082 7.26273L58.4099 6.4583L57.6248 6.30867L58.3495 5.96429L58.249 5.16209Z" fill="url(#paint5_linear_1_13)"/>
<path fill-rule="evenodd" clip-rule="evenodd" d="M67.6847 3.52152L68.2305 4.1129L68.9552 3.76629L68.5681 4.47558L69.1161 5.06696L68.3314 4.91286L67.9466 5.62215L67.8483 4.81996L67.0632 4.66809L67.7879 4.32595L67.6847 3.52152Z" fill="url(#paint6_linear_1_13)"/>
<path fill-rule="evenodd" clip-rule="evenodd" d="M74.4795 0.0496521L74.8688 0.471297L75.3828 0.224295L75.1081 0.731698L75.4991 1.15111L74.938 1.04213L74.6651 1.54998L74.5937 0.976467L74.0343 0.867929L74.5509 0.62316L74.4795 0.0496521Z" fill="url(#paint7_linear_1_13)"/>
<defs>
<linearGradient id="paint0_linear_1_13" x1="5.37933" y1="67.0497" x2="78.4535" y2="-2.33484" gradientUnits="userSpaceOnUse">
<stop stop-color="#58C27D"/>
<stop offset="1" stop-color="#C5E7B4"/>
</linearGradient>
<linearGradient id="paint1_linear_1_13" x1="5.37933" y1="67.0497" x2="78.4535" y2="-2.33484" gradientUnits="userSpaceOnUse">
<stop stop-color="#58C27D"/>
<stop offset="1" stop-color="#C5E7B4"/>
</linearGradient>
<linearGradient id="paint2_linear_1_13" x1="5.37933" y1="67.0497" x2="78.4535" y2="-2.33484" gradientUnits="userSpaceOnUse">
<stop stop-color="#58C27D"/>
<stop offset="1" stop-color="#C5E7B4"/>
</linearGradient>
<linearGradient id="paint3_linear_1_13" x1="5.37933" y1="67.0497" x2="78.4535" y2="-2.33484" gradientUnits="userSpaceOnUse">
<stop stop-color="#58C27D"/>
<stop offset="1" stop-color="#C5E7B4"/>
</linearGradient>
<linearGradient id="paint4_linear_1_13" x1="5.37933" y1="67.0497" x2="78.4535" y2="-2.33484" gradientUnits="userSpaceOnUse">
<stop stop-color="#58C27D"/>
<stop offset="1" stop-color="#C5E7B4"/>
</linearGradient>
<linearGradient id="paint5_linear_1_13" x1="5.37933" y1="67.0497" x2="78.4535" y2="-2.33484" gradientUnits="userSpaceOnUse">
<stop stop-color="#58C27D"/>
<stop offset="1" stop-color="#C5E7B4"/>
</linearGradient>
<linearGradient id="paint6_linear_1_13" x1="5.37933" y1="67.0497" x2="78.4535" y2="-2.33484" gradientUnits="userSpaceOnUse">
<stop stop-color="#58C27D"/>
<stop offset="1" stop-color="#C5E7B4"/>
</linearGradient>
<linearGradient id="paint7_linear_1_13" x1="5.37933" y1="67.0497" x2="78.4535" y2="-2.33484" gradientUnits="userSpaceOnUse">
<stop stop-color="#58C27D"/>
<stop offset="1" stop-color="#C5E7B4"/>
</linearGradient>
</defs>
</svg>
