<svg width="180" height="181" viewBox="0 0 180 181" fill="none" xmlns="http://www.w3.org/2000/svg">
<path d="M158.604 62.2422C161.811 62.2422 164.411 59.6403 164.411 56.4306C164.411 53.221 161.811 50.6191 158.604 50.6191C155.398 50.6191 152.798 53.221 152.798 56.4306C152.798 59.6403 155.398 62.2422 158.604 62.2422Z" fill="#EAEEF9"/>
<path d="M4.36881 93.6699C6.47852 93.6699 8.18878 91.9581 8.18878 89.8465C8.18878 87.7349 6.47852 86.0231 4.36881 86.0231C2.2591 86.0231 0.548843 87.7349 0.548843 89.8465C0.548843 91.9581 2.2591 93.6699 4.36881 93.6699Z" fill="#EAEEF9"/>
<path d="M21.9284 162.407C24.0381 162.407 25.7484 160.695 25.7484 158.584C25.7484 156.472 24.0381 154.76 21.9284 154.76C19.8187 154.76 18.1084 156.472 18.1084 158.584C18.1084 160.695 19.8187 162.407 21.9284 162.407Z" fill="#EAEEF9"/>
<path d="M42.3476 162.407L95.9524 145.611V76.744L42.3476 93.4115V162.407Z" fill="#F1F3F9" stroke="#D6DCE8" stroke-width="3.03633" stroke-miterlimit="10" stroke-linejoin="round"/>
<path d="M149.557 162.407L95.9524 145.611V76.744L149.557 93.4115V162.407Z" fill="#F1F3F9" stroke="#D6DCE8" stroke-width="3.03633" stroke-miterlimit="10" stroke-linejoin="round"/>
<path d="M95.9524 179.333L42.3476 162.536V93.6699L95.9524 110.467V179.333Z" fill="white" stroke="#D6DCE8" stroke-width="3.03633" stroke-miterlimit="10" stroke-linejoin="round"/>
<path d="M95.9524 179.333L149.557 162.536V93.6699L95.9524 110.467V179.333Z" fill="white" stroke="#D6DCE8" stroke-width="3.03633" stroke-miterlimit="10" stroke-linejoin="round"/>
<path d="M95.9524 76.744L70.7492 57.88L16.2488 76.2272L42.3476 93.4115L95.9524 76.744Z" fill="#F1F3F9" stroke="#D6DCE8" stroke-width="3.03633" stroke-miterlimit="10" stroke-linejoin="round"/>
<path d="M95.9524 76.744L121.156 57.88L175.656 76.2272L149.557 93.4115L95.9524 76.744Z" fill="#F1F3F9" stroke="#D6DCE8" stroke-width="3.03633" stroke-miterlimit="10" stroke-linejoin="round"/>
<path d="M42.3476 93.6699L95.9524 110.467L69.214 127.522L16.2488 109.95L42.3476 93.6699Z" fill="#F1F3F9" stroke="#D6DCE8" stroke-width="3.03633" stroke-miterlimit="10" stroke-linejoin="round"/>
<path d="M149.557 93.6699L95.9524 110.467L122.691 127.522L175.656 109.95L149.557 93.6699Z" fill="#F1F3F9" stroke="#D6DCE8" stroke-width="3.03633" stroke-miterlimit="10" stroke-linejoin="round"/>
<path d="M118.772 27.9943C125.97 47.0419 120.934 65.1898 118.772 69.2036C115.886 75.3438 108.827 79.5961 102.157 79.665C95.2859 79.7878 88.5496 75.5807 85.5176 69.0935C83.3844 65.1564 83.4523 59.7711 86.3784 56.1965C89.5594 52.7682 95.1557 51.9134 99.1814 54.0555C103.61 56.0898 106.253 60.3196 107.232 64.7805C108.211 69.2414 107.781 74.0797 106.586 78.4788C104.086 89.178 102.016 89.6957 95.8871 107.81" stroke="#C9D4E2" stroke-width="3.03633" stroke-miterlimit="10" stroke-dasharray="6.07 6.07"/>
<path d="M25.7484 51.6103H22.4235V48.2855H19.5737V51.6103H16.2488V54.5552H19.5737V57.88H22.4235V54.5552H25.7484V51.6103Z" fill="#AAB2C5"/>
<path d="M30.6194 132.102L28.2684 134.453L25.9174 132.102L23.9022 134.117L26.2532 136.468L23.9022 138.819L25.9845 140.901L28.3356 138.55L30.6866 140.901L32.7017 138.886L30.3507 136.535L32.7017 134.184L30.6194 132.102Z" fill="#AAB2C5"/>
<path d="M175.648 139.624L174.208 135.3L178.532 133.861L177.298 130.155L172.974 131.594L171.534 127.271L167.705 128.546L169.145 132.869L164.821 134.309L166.055 138.015L170.379 136.575L171.818 140.899L175.648 139.624Z" fill="#AAB2C5"/>
<path d="M113.713 11.0808C103.405 3.40281 94.573 10.915 98.2476 21.9073C100.368 28.2494 107.296 33.9988 118.095 35.451C119.021 35.5753 119.964 35.5026 120.86 35.2374C121.756 34.9723 122.586 34.5208 123.295 33.9125C131.566 26.8183 134.251 18.2246 132.579 11.7499C129.681 0.527849 118.184 -0.969809 113.713 11.0808Z" fill="#F1F3F9" stroke="#D6DCE8" stroke-width="3.03633" stroke-miterlimit="10" stroke-linejoin="round"/>
</svg>
