<svg width="24" height="24" viewBox="0 0 24 24" fill="none" xmlns="http://www.w3.org/2000/svg">
<path d="M16.9124 16.913C16.5219 17.3035 16.5219 17.9367 16.9124 18.3272C17.3029 18.7177 17.9361 18.7177 18.3266 18.3272C21.8215 14.8323 21.8215 9.16828 18.3266 5.67339C17.9361 5.28286 17.3029 5.28286 16.9124 5.67339C16.5219 6.06391 16.5219 6.69708 16.9124 7.0876C19.6262 9.80144 19.6262 14.1992 16.9124 16.913Z" fill="#323232"/>
<path d="M11.2521 15.9255C10.8615 15.535 10.8615 14.9018 11.2521 14.5113L12.7638 12.9995L4.05121 12.9995C3.49892 12.9995 3.05121 12.5518 3.05121 11.9995C3.05121 11.4472 3.49892 10.9995 4.05121 10.9995L12.7637 10.9995L11.2521 9.48786C10.8615 9.09734 10.8615 8.46417 11.2521 8.07365C11.6426 7.68312 12.2757 7.68312 12.6663 8.07365L15.8791 11.2865C15.9003 11.3073 15.9205 11.3291 15.9398 11.3517C16.0041 11.4272 16.0555 11.51 16.0937 11.5971C16.1554 11.7376 16.1832 11.8893 16.1772 12.0399C16.1729 12.148 16.1514 12.2517 16.1155 12.3483C16.0669 12.479 15.9901 12.6016 15.8851 12.7067L12.6663 15.9255C12.2758 16.316 11.6426 16.316 11.2521 15.9255Z" fill="#323232"/>
</svg>
