<svg width="24" height="24" viewBox="0 0 24 24" fill="none" xmlns="http://www.w3.org/2000/svg">
<path d="M5.62945 4.78445C9.19953 1.39326 14.8005 1.39326 18.3705 4.78445C21.7205 7.96651 22.1803 13.0877 19.5778 16.7967C19.6944 16.9198 19.7941 17.061 19.8723 17.2174L20.5105 18.4938C20.8593 19.1912 20.822 20.0196 20.412 20.6829C20.0021 21.3462 19.2779 21.75 18.4981 21.75H5.50194C4.72214 21.75 3.99794 21.3462 3.58797 20.6829C3.178 20.0196 3.14073 19.1912 3.48947 18.4938L4.12767 17.2174C4.20586 17.061 4.30557 16.9198 4.42219 16.7967C1.81965 13.0877 2.27953 7.96651 5.62945 4.78445ZM18.4027 17.769C18.3612 17.7661 18.32 17.7598 18.2793 17.75H5.72072C5.68003 17.7598 5.63875 17.7661 5.59732 17.769C5.54265 17.7916 5.49672 17.8334 5.46931 17.8882L4.83111 19.1646C4.71487 19.3971 4.72729 19.6732 4.86394 19.8943C5.0006 20.1154 5.242 20.25 5.50194 20.25H18.4981C18.758 20.25 18.9994 20.1154 19.1361 19.8943C19.2727 19.6732 19.2851 19.3971 19.1689 19.1646L18.5307 17.8882C18.5033 17.8334 18.4573 17.7916 18.4027 17.769ZM17.3375 5.87201C14.3463 3.03074 9.65366 3.03074 6.66251 5.87201C3.76011 8.62897 3.44706 13.1233 5.88305 16.25H11.25V14.9671L9.50825 14.9671C9.01703 14.9634 8.57222 14.6761 8.36671 14.2299C8.16136 13.784 8.23193 13.2597 8.54778 12.884L9.43999 11.8196C9.18126 11.6836 8.97064 11.4605 8.85245 11.1793C8.64918 10.6956 8.76007 10.137 9.13266 9.76762L9.13421 9.76608L11.0882 7.84024L11.6147 8.3744L11.0898 7.8387C11.5955 7.34324 12.4045 7.34324 12.9102 7.8387L12.9118 7.84024L14.8673 9.76762C15.2399 10.137 15.3508 10.6956 15.1475 11.1793C15.0294 11.4605 14.8187 11.6836 14.56 11.8196L15.4515 12.8832L15.4522 12.8841C15.768 13.2598 15.8386 13.7841 15.6332 14.2299C15.4277 14.6761 14.9829 14.9633 14.4917 14.9671L14.486 14.9671L12.75 14.9671V16.25H18.117C20.5529 13.1233 20.2399 8.62897 17.3375 5.87201ZM12.0017 13.4671H13.9837L12.7264 11.9671H11.2736L10.0163 13.4671H11.9983L12 13.4671L12.0017 13.4671ZM13.0802 10.4671H13.4402L12 9.04769L10.5598 10.4671H10.9197C10.9226 10.4671 10.9255 10.4671 10.9284 10.4671H13.0717C13.0745 10.4671 13.0774 10.4671 13.0802 10.4671Z" fill="#323232"/>
</svg>
