<svg width="24" height="24" viewBox="0 0 24 24" fill="none" xmlns="http://www.w3.org/2000/svg">
<path d="M12.75 7C12.75 6.58579 12.4142 6.25 12 6.25C11.5858 6.25 11.25 6.58579 11.25 7V8.09903L10.5399 7.62586C10.1952 7.39618 9.72954 7.48943 9.49986 7.83413C9.27018 8.17883 9.36342 8.64446 9.70813 8.87414L11.25 9.90151V11.25H9.90151L8.87414 9.70813C8.64446 9.36342 8.17883 9.27018 7.83413 9.49986C7.48943 9.72954 7.39618 10.1952 7.62586 10.5399L8.09903 11.25H7C6.58579 11.25 6.25 11.5858 6.25 12C6.25 12.4142 6.58579 12.75 7 12.75H8.09903L7.62586 13.4601C7.39618 13.8048 7.48943 14.2705 7.83413 14.5001C8.17883 14.7298 8.64446 14.6366 8.87414 14.2919L9.90151 12.75H11.25V14.0985L9.70813 15.1259C9.36342 15.3555 9.27018 15.8212 9.49986 16.1659C9.72954 16.5106 10.1952 16.6038 10.5399 16.3741L11.25 15.901V17C11.25 17.4142 11.5858 17.75 12 17.75C12.4142 17.75 12.75 17.4142 12.75 17V15.901L13.4601 16.3741C13.8048 16.6038 14.2705 16.5106 14.5001 16.1659C14.7298 15.8212 14.6366 15.3555 14.2919 15.1259L12.75 14.0985V12.75H14.0985L15.1259 14.2919C15.3555 14.6366 15.8212 14.7298 16.1659 14.5001C16.5106 14.2705 16.6038 13.8048 16.3741 13.4601L15.901 12.75H17C17.4142 12.75 17.75 12.4142 17.75 12C17.75 11.5858 17.4142 11.25 17 11.25H15.901L16.3741 10.5399C16.6038 10.1952 16.5106 9.72954 16.1659 9.49986C15.8212 9.27018 15.3555 9.36342 15.1259 9.70813L14.0985 11.25H12.75V9.90151L14.2919 8.87414C14.6366 8.64446 14.7298 8.17883 14.5001 7.83413C14.2705 7.48943 13.8048 7.39618 13.4601 7.62586L12.75 8.09903V7Z" fill="#323232"/>
<path fill-rule="evenodd" clip-rule="evenodd" d="M12 2.25C6.61522 2.25 2.25 6.61522 2.25 12C2.25 17.3848 6.61522 21.75 12 21.75C17.3848 21.75 21.75 17.3848 21.75 12C21.75 6.61522 17.3848 2.25 12 2.25ZM3.75 12C3.75 7.44365 7.44365 3.75 12 3.75C16.5563 3.75 20.25 7.44365 20.25 12C20.25 16.5563 16.5563 20.25 12 20.25C7.44365 20.25 3.75 16.5563 3.75 12Z" fill="#323232"/>
</svg>
