<svg width="24" height="24" viewBox="0 0 24 24" fill="none" xmlns="http://www.w3.org/2000/svg">
<path d="M12.3354 2.32918C11.9649 2.14393 11.5144 2.29409 11.3292 2.66457C11.1439 3.03505 11.2941 3.48556 11.6646 3.67081C11.9786 3.82782 12.21 4.1121 12.3002 4.45141C12.3903 4.79072 12.3303 5.15238 12.1356 5.44449L11.376 6.58397C11.1462 6.92862 11.2393 7.39427 11.584 7.62404C11.9286 7.8538 12.3943 7.76067 12.624 7.41602L13.3837 6.27654C13.8171 5.62645 13.9504 4.82155 13.7499 4.06641C13.5494 3.31128 13.0342 2.67861 12.3354 2.32918Z" fill="#323232"/>
<path d="M5.75 3C5.75 2.58579 5.41421 2.25 5 2.25C4.58579 2.25 4.25 2.58579 4.25 3V3.5C4.25 3.91421 4.58579 4.25 5 4.25C5.41421 4.25 5.75 3.91421 5.75 3.5V3Z" fill="#323232"/>
<path d="M8.03841 8.84748C8.59369 8.75737 9.15844 8.93969 9.55621 9.33748L14.6625 14.4438C15.0603 14.8416 15.2426 15.4063 15.1525 15.9616C15.0624 16.5169 14.7108 16.995 14.2076 17.2466L6.62811 21.0363C5.57658 21.5621 4.3066 21.356 3.4753 20.5247C2.644 19.6934 2.43791 18.4234 2.96367 17.3719L6.75346 9.79231C7.00502 9.28915 7.48313 8.93759 8.03841 8.84748ZM8.27869 10.3281C8.19936 10.341 8.13106 10.3912 8.09512 10.4631L4.30531 18.0427C4.06829 18.5168 4.1612 19.0893 4.53596 19.464C4.91072 19.8388 5.48325 19.9317 5.95729 19.6947L13.5369 15.9049C13.6088 15.869 13.659 15.8006 13.6719 15.7213C13.6848 15.642 13.6587 15.5613 13.6019 15.5045L8.49552 10.3981C8.4387 10.3413 8.35802 10.3152 8.27869 10.3281Z" fill="#323232"/>
<path d="M5 5.75C5.41421 5.75 5.75 6.08579 5.75 6.5V7C5.75 7.41421 5.41421 7.75 5 7.75C4.58579 7.75 4.25 7.41421 4.25 7V6.5C4.25 6.08579 4.58579 5.75 5 5.75Z" fill="#323232"/>
<path d="M6.5 4.25C6.08579 4.25 5.75 4.58579 5.75 5C5.75 5.41421 6.08579 5.75 6.5 5.75H7C7.41421 5.75 7.75 5.41421 7.75 5C7.75 4.58579 7.41421 4.25 7 4.25H6.5Z" fill="#323232"/>
<path d="M2.25 5C2.25 4.58579 2.58579 4.25 3 4.25H3.5C3.91421 4.25 4.25 4.58579 4.25 5C4.25 5.41421 3.91421 5.75 3.5 5.75H3C2.58579 5.75 2.25 5.41421 2.25 5Z" fill="#323232"/>
<path d="M18.5555 11.8644L17.416 12.624C17.0714 12.8538 16.6057 12.7607 16.376 12.416C16.1462 12.0714 16.2393 11.6057 16.584 11.376L17.7235 10.6163C18.3736 10.1829 19.1785 10.0496 19.9336 10.2501C20.6887 10.4506 21.3214 10.9658 21.6708 11.6646C21.8561 12.0351 21.7059 12.4856 21.3354 12.6708C20.9649 12.8561 20.5144 12.7059 20.3292 12.3354C20.1722 12.0214 19.8879 11.79 19.5486 11.6998C19.2093 11.6097 18.8476 11.6697 18.5555 11.8644Z" fill="#323232"/>
<path d="M19.75 17C19.75 16.5858 19.4142 16.25 19 16.25C18.5858 16.25 18.25 16.5858 18.25 17V17.5C18.25 17.9142 18.5858 18.25 19 18.25C19.4142 18.25 19.75 17.9142 19.75 17.5V17Z" fill="#323232"/>
<path d="M19 19.75C19.4142 19.75 19.75 20.0858 19.75 20.5V21C19.75 21.4142 19.4142 21.75 19 21.75C18.5858 21.75 18.25 21.4142 18.25 21V20.5C18.25 20.0858 18.5858 19.75 19 19.75Z" fill="#323232"/>
<path d="M20.5 18.25C20.0858 18.25 19.75 18.5858 19.75 19C19.75 19.4142 20.0858 19.75 20.5 19.75H21C21.4142 19.75 21.75 19.4142 21.75 19C21.75 18.5858 21.4142 18.25 21 18.25H20.5Z" fill="#323232"/>
<path d="M16.25 19C16.25 18.5858 16.5858 18.25 17 18.25H17.5C17.9142 18.25 18.25 18.5858 18.25 19C18.25 19.4142 17.9142 19.75 17.5 19.75H17C16.5858 19.75 16.25 19.4142 16.25 19Z" fill="#323232"/>
<path d="M19.75 3C19.75 2.58579 19.4142 2.25 19 2.25C18.5858 2.25 18.25 2.58579 18.25 3V3.5C18.25 3.91421 18.5858 4.25 19 4.25C19.4142 4.25 19.75 3.91421 19.75 3.5V3Z" fill="#323232"/>
<path d="M19 5.75C19.4142 5.75 19.75 6.08579 19.75 6.5V7C19.75 7.41421 19.4142 7.75 19 7.75C18.5858 7.75 18.25 7.41421 18.25 7V6.5C18.25 6.08579 18.5858 5.75 19 5.75Z" fill="#323232"/>
<path d="M20.5 4.25C20.0858 4.25 19.75 4.58579 19.75 5C19.75 5.41421 20.0858 5.75 20.5 5.75H21C21.4142 5.75 21.75 5.41421 21.75 5C21.75 4.58579 21.4142 4.25 21 4.25H20.5Z" fill="#323232"/>
<path d="M16.25 5C16.25 4.58579 16.5858 4.25 17 4.25H17.5C17.9142 4.25 18.25 4.58579 18.25 5C18.25 5.41421 17.9142 5.75 17.5 5.75H17C16.5858 5.75 16.25 5.41421 16.25 5Z" fill="#323232"/>
<path d="M15.5303 9.53033C15.8232 9.23744 15.8232 8.76256 15.5303 8.46967C15.2374 8.17678 14.7626 8.17678 14.4697 8.46967L13.4697 9.46967C13.1768 9.76256 13.1768 10.2374 13.4697 10.5303C13.7626 10.8232 14.2374 10.8232 14.5303 10.5303L15.5303 9.53033Z" fill="#323232"/>
</svg>
