<svg width="24" height="24" viewBox="0 0 24 24" fill="none" xmlns="http://www.w3.org/2000/svg">
<path d="M5.75 3C5.75 2.58579 5.41421 2.25 5 2.25C4.58579 2.25 4.25 2.58579 4.25 3V3.5C4.25 3.91421 4.58579 4.25 5 4.25C5.41421 4.25 5.75 3.91421 5.75 3.5V3Z" fill="#323232"/>
<path d="M5.75 6.5C5.75 6.08579 5.41421 5.75 5 5.75C4.58579 5.75 4.25 6.08579 4.25 6.5V7C4.25 7.41421 4.58579 7.75 5 7.75C5.41421 7.75 5.75 7.41421 5.75 7V6.5Z" fill="#323232"/>
<path d="M5.75 5C5.75 4.58579 6.08579 4.25 6.5 4.25H7C7.41421 4.25 7.75 4.58579 7.75 5C7.75 5.41421 7.41421 5.75 7 5.75H6.5C6.08579 5.75 5.75 5.41421 5.75 5Z" fill="#323232"/>
<path d="M3 4.25C2.58579 4.25 2.25 4.58579 2.25 5C2.25 5.41421 2.58579 5.75 3 5.75H3.5C3.91421 5.75 4.25 5.41421 4.25 5C4.25 4.58579 3.91421 4.25 3.5 4.25H3Z" fill="#323232"/>
<path d="M19 16.25C19.4142 16.25 19.75 16.5858 19.75 17V17.5C19.75 17.9142 19.4142 18.25 19 18.25C18.5858 18.25 18.25 17.9142 18.25 17.5V17C18.25 16.5858 18.5858 16.25 19 16.25Z" fill="#323232"/>
<path d="M19.75 20.5C19.75 20.0858 19.4142 19.75 19 19.75C18.5858 19.75 18.25 20.0858 18.25 20.5V21C18.25 21.4142 18.5858 21.75 19 21.75C19.4142 21.75 19.75 21.4142 19.75 21V20.5Z" fill="#323232"/>
<path d="M19.75 19C19.75 18.5858 20.0858 18.25 20.5 18.25H21C21.4142 18.25 21.75 18.5858 21.75 19C21.75 19.4142 21.4142 19.75 21 19.75H20.5C20.0858 19.75 19.75 19.4142 19.75 19Z" fill="#323232"/>
<path d="M17 18.25C16.5858 18.25 16.25 18.5858 16.25 19C16.25 19.4142 16.5858 19.75 17 19.75H17.5C17.9142 19.75 18.25 19.4142 18.25 19C18.25 18.5858 17.9142 18.25 17.5 18.25H17Z" fill="#323232"/>
<path d="M4.88388 19.1161C5.17677 19.409 5.17677 19.8839 4.88388 20.1768L4.53033 20.5303C4.23744 20.8232 3.76256 20.8232 3.46967 20.5303C3.17678 20.2374 3.17678 19.7626 3.46967 19.4697L3.82322 19.1161C4.11611 18.8232 4.59099 18.8232 4.88388 19.1161Z" fill="#323232"/>
<path d="M7.00519 19.1161C6.71229 18.8232 6.23742 18.8232 5.94453 19.1161C5.65164 19.409 5.65165 19.8839 5.94455 20.1768L6.29811 20.5303C6.591 20.8232 7.06588 20.8232 7.35877 20.5303C7.65166 20.2374 7.65165 19.7626 7.35875 19.4697L7.00519 19.1161Z" fill="#323232"/>
<path d="M3.46968 16.6412C3.76257 16.3483 4.23745 16.3483 4.53034 16.6412L4.88389 16.9948C5.17678 17.2877 5.17677 17.7626 4.88387 18.0555C4.59098 18.3484 4.1161 18.3484 3.82321 18.0555L3.46966 17.7019C3.17677 17.409 3.17678 16.9341 3.46968 16.6412Z" fill="#323232"/>
<path d="M5.94454 16.9948L6.43934 16.5L6.38388 16.4445C5.30995 15.3706 5.30995 13.6294 6.38388 12.5555L13.2824 5.6569C13.2178 5.28153 13.2571 4.88767 13.4093 4.52033C13.7278 3.75137 14.4781 3.25 15.3104 3.25H18.6922C19.238 3.25 19.7614 3.46681 20.1473 3.85272C20.5332 4.23864 20.75 4.76205 20.75 5.30782V8.68956C20.75 9.52187 20.2486 10.2722 19.4797 10.5907C19.1123 10.7429 18.7185 10.7822 18.3431 10.7176L11.4445 17.6161C10.3706 18.6901 8.62941 18.6901 7.55546 17.6161L7.5 17.5607L7.0052 18.0555C6.71231 18.3484 6.23743 18.3484 5.94454 18.0555C5.65165 17.7626 5.65165 17.2877 5.94454 16.9948ZM16.8424 9.75L14.0765 6.98412L11.3107 9.75H16.8424ZM18.2977 9.084C18.3364 9.12268 18.3798 9.15479 18.4264 9.18001C18.4442 9.18765 18.4618 9.196 18.479 9.20507C18.6131 9.26045 18.7664 9.26261 18.9057 9.20492C19.1141 9.11858 19.25 8.91518 19.25 8.68956V5.30782C19.25 5.15988 19.1912 5.01799 19.0866 4.91338C18.982 4.80877 18.8401 4.75 18.6922 4.75H15.3104C15.0848 4.75 14.8814 4.88591 14.7951 5.09435C14.7087 5.30279 14.7565 5.54272 14.916 5.70226L18.2977 9.084ZM7.81066 13.25H13.6893L15.6893 11.25H9.81066L7.81066 13.25ZM7.10355 14.75C7.15073 14.9823 7.2644 15.2037 7.44454 15.3839L8.61612 16.5555C9.10428 17.0436 9.89573 17.0436 10.3839 16.5555L12.1893 14.75H7.10355Z" fill="#323232"/>
</svg>
