<svg width="24" height="24" viewBox="0 0 24 24" fill="none" xmlns="http://www.w3.org/2000/svg">
<path d="M12 7.25C12.4142 7.25 12.75 7.58579 12.75 8V14.1893L14.4697 12.4697C14.7626 12.1768 15.2374 12.1768 15.5303 12.4697C15.8232 12.7626 15.8232 13.2374 15.5303 13.5303L12.5303 16.5303C12.4584 16.6022 12.3755 16.6565 12.2871 16.6931C12.1987 16.7298 12.1017 16.75 12 16.75C11.8983 16.75 11.8013 16.7298 11.7129 16.6931C11.6245 16.6565 11.5416 16.6022 11.4697 16.5303L8.46967 13.5303C8.17678 13.2374 8.17678 12.7626 8.46967 12.4697C8.76256 12.1768 9.23744 12.1768 9.53033 12.4697L11.25 14.1893V8C11.25 7.58579 11.5858 7.25 12 7.25Z" fill="#323232"/>
<path d="M12 21.75C6.61479 21.75 2.25 17.3852 2.25 12C2.25 6.61479 6.61479 2.25 12 2.25C17.3852 2.25 21.75 6.61479 21.75 12C21.75 17.3852 17.3852 21.75 12 21.75ZM12 3.75C7.44321 3.75 3.75 7.44321 3.75 12C3.75 16.5568 7.44321 20.25 12 20.25C16.5568 20.25 20.25 16.5568 20.25 12C20.25 7.44321 16.5568 3.75 12 3.75Z" fill="#323232"/>
</svg>
