<svg width="24" height="24" viewBox="0 0 24 24" fill="none" xmlns="http://www.w3.org/2000/svg">
<path d="M16.9481 6.09748C16.4228 6.1003 15.9965 6.52669 15.9965 7.05191C15.9965 7.57714 16.4257 8.00353 16.9509 8.00353C17.4761 8.00353 17.9025 7.57714 17.9025 7.05191C17.9053 6.52387 17.4761 6.09748 16.9481 6.09748Z" fill="#323232"/>
<path d="M8.92411 8.9241C10.6229 7.22531 13.3772 7.22531 15.0759 8.9241C16.7747 10.6229 16.7747 13.3771 15.0759 15.0759C13.3772 16.7747 10.6229 16.7747 8.92411 15.0759C7.22533 13.3771 7.22533 10.6229 8.92411 8.9241ZM9.98477 9.98476C8.87178 11.0978 8.87178 12.9023 9.98477 14.0153C11.0978 15.1283 12.9023 15.1283 14.0153 14.0153C15.1283 12.9023 15.1283 11.0978 14.0153 9.98476C12.9023 8.87176 11.0978 8.87176 9.98477 9.98476Z" fill="#323232"/>
<path d="M7.496 2.25H16.505C19.4012 2.25 21.75 4.59779 21.75 7.496V16.505C21.75 19.4012 19.4022 21.75 16.504 21.75H7.496C4.59889 21.75 2.25 19.4023 2.25 16.504V7.496C2.25 4.59889 4.59768 2.25 7.496 2.25ZM7.496 3.75C5.42632 3.75 3.75 5.4271 3.75 7.496V16.504C3.75 18.5737 5.4271 20.25 7.496 20.25H16.504C18.5738 20.25 20.25 18.5728 20.25 16.505V7.496C20.25 5.42621 18.5728 3.75 16.505 3.75H7.496Z" fill="#323232"/>
</svg>
