<svg width="24" height="24" viewBox="0 0 24 24" fill="none" xmlns="http://www.w3.org/2000/svg">
<path d="M4.29182 4.05891C5.68091 2.66982 7.93309 2.66982 9.32218 4.05891C10.7113 5.448 10.7113 7.70018 9.32218 9.08927C9.04032 9.37113 8.72293 9.59579 8.38443 9.76327L10.9609 11.1486L19.6448 6.47947C20.0096 6.28331 20.4644 6.42004 20.6606 6.78487C20.8567 7.14969 20.72 7.60445 20.3552 7.80061L12.5446 12.0001L20.3552 16.1996C20.72 16.3957 20.8567 16.8505 20.6606 17.2153C20.4644 17.5801 20.0096 17.7169 19.6448 17.5207L10.9609 12.8516L8.38439 14.2369C8.72291 14.4044 9.04031 14.6291 9.32218 14.911C10.7113 16.3001 10.7113 18.5522 9.32218 19.9413C7.93309 21.3304 5.68091 21.3304 4.29182 19.9413C2.90273 18.5522 2.90273 16.3001 4.29182 14.911C4.49163 14.7111 4.7093 14.5401 4.93969 14.3977C4.97225 14.3725 5.00733 14.3496 5.04482 14.3295L9.37715 12.0001L5.04482 9.67073C5.00742 9.65062 4.97242 9.62779 4.93992 9.60262C4.70945 9.46027 4.4917 9.28915 4.29182 9.08927C2.90273 7.70018 2.90273 5.448 4.29182 4.05891ZM5.35248 5.11957C4.54917 5.92288 4.54917 7.2253 5.35248 8.02861C6.15579 8.83192 7.45821 8.83192 8.26152 8.02861C9.06483 7.2253 9.06483 5.92288 8.26152 5.11957C7.45821 4.31626 6.15579 4.31626 5.35248 5.11957ZM5.35248 15.9716C4.54917 16.7749 4.54917 18.0774 5.35248 18.8807C6.15579 19.684 7.45821 19.684 8.26152 18.8807C9.06483 18.0774 9.06483 16.7749 8.26152 15.9716C7.45821 15.1683 6.15579 15.1683 5.35248 15.9716Z" fill="#323232"/>
</svg>
