<svg width="24" height="24" viewBox="0 0 24 24" fill="none" xmlns="http://www.w3.org/2000/svg">
<path d="M20.7611 3.37239C21.7275 3.67736 22.4877 4.56535 22.7444 5.69103C23.212 7.73385 23.212 12 23.212 12C23.212 12 23.212 16.2662 22.7444 18.309C22.4843 19.4391 21.7242 20.3271 20.7611 20.6276C19.0131 21.1736 12 21.1736 12 21.1736C12 21.1736 4.9903 21.1736 3.23899 20.6276C2.27252 20.3226 1.51235 19.4347 1.25559 18.309C0.788055 16.2662 0.788055 12 0.788055 12C0.788055 12 0.788055 7.73385 1.25559 5.69103C1.51571 4.56086 2.27588 3.67287 3.23899 3.37239C4.9903 2.82637 12 2.82637 12 2.82637C12 2.82637 19.0131 2.82637 20.7611 3.37239ZM19.5662 4.71132C18.0566 4.25003 12 4.25003 12 4.25003C12 4.25003 5.94627 4.25003 4.43381 4.71132C3.60205 4.96516 2.94555 5.71535 2.72091 6.67012C2.31714 8.39592 2.31714 12 2.31714 12C2.31714 12 2.31714 15.6041 2.72091 17.3299C2.94265 18.2809 3.59915 19.0311 4.43381 19.2887C5.94627 19.75 12 19.75 12 19.75C12 19.75 18.0566 19.75 19.5662 19.2887C20.3979 19.0348 21.0544 18.2847 21.2791 17.3299C21.6829 15.6041 21.6829 12 21.6829 12C21.6829 12 21.6829 8.39592 21.2791 6.67012C21.0573 5.71913 20.4008 4.96895 19.5662 4.71132Z" fill="#323232"/>
<path d="M9.62702 8.35048C9.85907 8.21651 10.145 8.21651 10.377 8.35049L15.573 11.3505C15.8051 11.4845 15.948 11.7321 15.948 12C15.948 12.268 15.8051 12.5155 15.573 12.6495L10.377 15.6495C10.145 15.7835 9.85907 15.7835 9.62702 15.6495C9.39496 15.5156 9.25201 15.268 9.25201 15V9.00001C9.25201 8.73206 9.39496 8.48446 9.62702 8.35048ZM10.752 10.2991V13.7009L13.698 12L10.752 10.2991Z" fill="#323232"/>
</svg>
