<svg width="24" height="24" viewBox="0 0 24 24" fill="none" xmlns="http://www.w3.org/2000/svg">
<path d="M7.5 2.25H16.504C19.4012 2.25 21.75 4.59879 21.75 7.496V16.505C21.75 19.4013 19.4011 21.75 16.504 21.75H7.496C4.59879 21.75 2.25 19.4012 2.25 16.504V7.5C2.25 4.60079 4.60079 2.25 7.5 2.25ZM7.5 3.75C5.42921 3.75 3.75 5.42921 3.75 7.5V16.504C3.75 18.5728 5.42721 20.25 7.496 20.25H12.15V13.65H11.1C10.6858 13.65 10.35 13.3142 10.35 12.9C10.35 12.4858 10.6858 12.15 11.1 12.15H12.15V11.055C12.15 9.17478 13.6748 7.64999 15.555 7.64999H16.5C16.9142 7.64999 17.25 7.98578 17.25 8.39999C17.25 8.81421 16.9142 9.14999 16.5 9.14999H15.555C14.5032 9.14999 13.65 10.0032 13.65 11.055V12.15H16.5C16.9142 12.15 17.25 12.4858 17.25 12.9C17.25 13.3142 16.9142 13.65 16.5 13.65H13.65V20.25H16.504C18.5729 20.25 20.25 18.5727 20.25 16.505V7.496C20.25 5.42721 18.5728 3.75 16.504 3.75H7.5Z" fill="#323232"/>
</svg>
