<svg width="24" height="24" viewBox="0 0 24 24" fill="none" xmlns="http://www.w3.org/2000/svg">
<path d="M4.84798 4.10153C5.10638 4.1181 5.33796 4.26678 5.46057 4.49484C6.34991 6.149 7.89063 7.65654 9.5568 8.35026C9.7587 7.28226 10.2344 6.33377 10.9521 5.60043C11.8856 4.64645 13.1869 4.09999 14.7 4.09999C15.6993 4.09999 16.5426 4.29109 17.2551 4.67132C17.84 4.98345 18.3054 5.40633 18.6859 5.89999H21C21.2766 5.89999 21.5307 6.05223 21.6612 6.2961C21.7918 6.53997 21.7775 6.83588 21.624 7.06602L19.9485 9.57938C19.9057 12.7724 18.9671 15.5775 17.1749 17.6087C15.3296 19.7001 12.6407 20.9 9.29999 20.9C7.35541 20.9 5.94109 20.388 4.83815 19.6076C3.76328 18.847 3.02634 17.8575 2.40331 17.0046C2.36575 16.9554 2.33401 16.9012 2.3093 16.8427C2.23048 16.6572 2.23139 16.4501 2.30469 16.2686C2.34432 16.1704 2.40512 16.0796 2.48592 16.0038C2.54958 15.9438 2.62417 15.8944 2.70722 15.8593C2.73676 15.8468 2.76685 15.8362 2.7973 15.8277L2.80468 15.8253L2.88986 15.7975C2.96457 15.7729 3.07041 15.7378 3.19748 15.6956C3.45139 15.6111 3.78754 15.499 4.12314 15.3868C4.21411 15.3564 4.30501 15.326 4.3942 15.2962C1.87612 12.0435 1.86529 7.66066 4.19017 4.41339C4.3409 4.20286 4.58957 4.08497 4.84798 4.10153ZM5.93825 16.3611L5.52029 16.5011C5.26937 16.5851 4.93445 16.6972 4.59859 16.8094C4.4741 16.8511 4.34944 16.8927 4.22884 16.933C4.66396 17.4784 5.12893 17.9758 5.70458 18.3831C6.5374 18.9724 7.64457 19.4 9.29999 19.4C12.2593 19.4 14.5204 18.3499 16.0501 16.6163C17.5884 14.8729 18.4481 12.3675 18.45 9.36002C18.4489 9.28393 18.4594 9.20727 18.4819 9.13278C18.5045 9.05808 18.5384 8.9883 18.5816 8.92544L19.5986 7.39999H18.3C18.0478 7.39999 17.8126 7.27329 17.6738 7.06277C17.3617 6.58935 17.0003 6.23557 16.5489 5.99467C16.0959 5.7529 15.5056 5.6 14.7 5.6C13.5621 5.6 12.6563 6.00354 12.0242 6.64956C11.388 7.29967 10.9872 8.2388 10.9496 9.37479C10.9421 9.60041 10.8334 9.81066 10.6537 9.94721C10.4739 10.0838 10.2422 10.1321 10.0229 10.0788C7.94981 9.57495 6.06066 8.04599 4.80646 6.27787C3.3574 9.11856 3.78374 12.6462 6.23321 15.1226C6.41534 15.3067 6.48959 15.5718 6.42959 15.8237C6.3696 16.0757 6.18382 16.2789 5.93825 16.3611Z" fill="#323232"/>
</svg>
